<mxfile host="app.diagrams.net" agent="Mozilla/5.0 (Windows NT 10.0; Win64; x64) AppleWebKit/537.36 (KHTML, like Gecko) Chrome/134.0.0.0 Safari/537.36" version="26.0.5">
  <diagram name="페이지-1" id="UC3-xQtOUNfhpzZci8Uw">
    <mxGraphModel dx="1050" dy="557" grid="1" gridSize="10" guides="1" tooltips="1" connect="1" arrows="1" fold="1" page="1" pageScale="1" pageWidth="827" pageHeight="1169" math="0" shadow="0">
      <root>
        <mxCell id="0" />
        <mxCell id="1" parent="0" />
        <mxCell id="fDI8euunYdC2z1CpRSoz-24" value="" style="group" vertex="1" connectable="0" parent="1">
          <mxGeometry x="210" y="110" width="400" height="320" as="geometry" />
        </mxCell>
        <mxCell id="fDI8euunYdC2z1CpRSoz-1" value="" style="whiteSpace=wrap;html=1;aspect=fixed;" vertex="1" parent="fDI8euunYdC2z1CpRSoz-24">
          <mxGeometry x="100" y="20" width="300" height="300" as="geometry" />
        </mxCell>
        <mxCell id="fDI8euunYdC2z1CpRSoz-6" value="" style="endArrow=none;html=1;rounded=0;" edge="1" parent="fDI8euunYdC2z1CpRSoz-24">
          <mxGeometry width="50" height="50" relative="1" as="geometry">
            <mxPoint x="100" y="151" as="sourcePoint" />
            <mxPoint x="399" y="150" as="targetPoint" />
          </mxGeometry>
        </mxCell>
        <mxCell id="fDI8euunYdC2z1CpRSoz-7" value="" style="endArrow=none;html=1;rounded=0;" edge="1" parent="fDI8euunYdC2z1CpRSoz-24">
          <mxGeometry width="50" height="50" relative="1" as="geometry">
            <mxPoint x="100" y="201" as="sourcePoint" />
            <mxPoint x="399" y="200" as="targetPoint" />
          </mxGeometry>
        </mxCell>
        <mxCell id="fDI8euunYdC2z1CpRSoz-8" value="" style="endArrow=none;html=1;rounded=0;" edge="1" parent="fDI8euunYdC2z1CpRSoz-24">
          <mxGeometry width="50" height="50" relative="1" as="geometry">
            <mxPoint x="100" y="261" as="sourcePoint" />
            <mxPoint x="399" y="260" as="targetPoint" />
          </mxGeometry>
        </mxCell>
        <mxCell id="fDI8euunYdC2z1CpRSoz-11" value="EBP" style="text;strokeColor=none;fillColor=none;html=1;fontSize=24;fontStyle=1;verticalAlign=middle;align=center;" vertex="1" parent="fDI8euunYdC2z1CpRSoz-24">
          <mxGeometry y="190" width="100" height="40" as="geometry" />
        </mxCell>
        <mxCell id="fDI8euunYdC2z1CpRSoz-12" value="Dummy(0x08)" style="text;html=1;align=center;verticalAlign=middle;whiteSpace=wrap;rounded=0;" vertex="1" parent="fDI8euunYdC2z1CpRSoz-24">
          <mxGeometry x="220" y="160" width="60" height="30" as="geometry" />
        </mxCell>
        <mxCell id="fDI8euunYdC2z1CpRSoz-13" value="" style="endArrow=none;html=1;rounded=0;" edge="1" parent="fDI8euunYdC2z1CpRSoz-24">
          <mxGeometry width="50" height="50" relative="1" as="geometry">
            <mxPoint x="101" y="101" as="sourcePoint" />
            <mxPoint x="400" y="100" as="targetPoint" />
          </mxGeometry>
        </mxCell>
        <mxCell id="fDI8euunYdC2z1CpRSoz-15" value="Canary(0x04)" style="text;html=1;align=center;verticalAlign=middle;whiteSpace=wrap;rounded=0;" vertex="1" parent="fDI8euunYdC2z1CpRSoz-24">
          <mxGeometry x="220" y="110" width="60" height="30" as="geometry" />
        </mxCell>
        <mxCell id="fDI8euunYdC2z1CpRSoz-16" value="SFP" style="text;html=1;align=center;verticalAlign=middle;whiteSpace=wrap;rounded=0;" vertex="1" parent="fDI8euunYdC2z1CpRSoz-24">
          <mxGeometry x="220" y="220" width="60" height="30" as="geometry" />
        </mxCell>
        <mxCell id="fDI8euunYdC2z1CpRSoz-17" value="RET ADDR" style="text;html=1;align=center;verticalAlign=middle;whiteSpace=wrap;rounded=0;" vertex="1" parent="fDI8euunYdC2z1CpRSoz-24">
          <mxGeometry x="204" y="280" width="100" height="30" as="geometry" />
        </mxCell>
        <mxCell id="fDI8euunYdC2z1CpRSoz-18" value="BUF" style="text;html=1;align=center;verticalAlign=middle;whiteSpace=wrap;rounded=0;" vertex="1" parent="fDI8euunYdC2z1CpRSoz-24">
          <mxGeometry x="224" y="40" width="60" height="30" as="geometry" />
        </mxCell>
        <mxCell id="fDI8euunYdC2z1CpRSoz-19" value="ESP" style="text;strokeColor=none;fillColor=none;html=1;fontSize=24;fontStyle=1;verticalAlign=middle;align=center;" vertex="1" parent="fDI8euunYdC2z1CpRSoz-24">
          <mxGeometry width="100" height="40" as="geometry" />
        </mxCell>
        <mxCell id="fDI8euunYdC2z1CpRSoz-21" value="" style="endArrow=classic;html=1;rounded=0;" edge="1" parent="fDI8euunYdC2z1CpRSoz-24">
          <mxGeometry width="50" height="50" relative="1" as="geometry">
            <mxPoint x="80" y="20" as="sourcePoint" />
            <mxPoint x="100" y="20" as="targetPoint" />
          </mxGeometry>
        </mxCell>
        <mxCell id="fDI8euunYdC2z1CpRSoz-23" value="" style="endArrow=classic;html=1;rounded=0;" edge="1" parent="fDI8euunYdC2z1CpRSoz-24">
          <mxGeometry width="50" height="50" relative="1" as="geometry">
            <mxPoint x="81" y="201" as="sourcePoint" />
            <mxPoint x="101" y="201" as="targetPoint" />
          </mxGeometry>
        </mxCell>
      </root>
    </mxGraphModel>
  </diagram>
</mxfile>
